<svg xmlns="http://www.w3.org/2000/svg" xmlns:xlink="http://www.w3.org/1999/xlink" viewBox="0 0 3045.43 3254.56"><defs><style>.cls-1{fill:none;}.cls-2{fill:#fcf7f5;}.cls-3{fill:#ffdbc1;}.cls-4{fill:#ffe55d;}.cls-5{fill:#ffec9e;}.cls-6{fill:#fcead5;}.cls-7{fill:#fff;}.cls-8{fill:url(#New_Pattern_Swatch_13);}</style><pattern id="New_Pattern_Swatch_13" data-name="New Pattern Swatch 13" width="648" height="648" patternTransform="translate(55.72 -343.44) scale(0.49)" patternUnits="userSpaceOnUse" viewBox="0 0 648 648"><rect class="cls-1" width="648" height="648"/><rect class="cls-2" width="648" height="648"/><path class="cls-3" d="M95.36,97.35c-3.22,4.48-7.46,8-11.31,11.85-4.37,4.39-7.4,9.77-11.15,14.62a2,2,0,0,0,.31,3c3,2.26,4.75,5.47,6.63,8.58,1.76,2.91,2.61,3,4.39.15,3.74-6,6.69-12.5,10-18.75,2.79-5.23,6.22-10.17,8.93-15.38,9.58-18.4,24.44-32.55,37.5-48.16,1.83-2.18,3.63-4.38,5.78-7-.32,2.32-.28,4.35-.9,6.16-1.65,4.9-2.86,9.95-5.12,14.65a15.42,15.42,0,0,1-3.67,4.71c-5.88,5.38-11.55,10.94-15.54,18-1.84,3.24-3.34,7.07-2.64,10.27.68,3,1.57,6.49,3.66,9.34a54.64,54.64,0,0,0,10.45,11.39c5.36,4.16,9.87,9.32,16.06,12.52,5.06,2.61,10,5.09,15.88,4.94,14.3-.38,27.17-5.15,39-12.83,2.36-1.52,3.76-4.28,6.43-5.5a4.5,4.5,0,0,1,2.75-1.58l0-.06a229.31,229.31,0,0,0,25.09-18.9c1.87-1.61,3.63-3.36,5.44-5l1.55-1.68,3.36-4,3.91-5c3.9-5.7,7.87-11.36,10.26-17.93,1.64-4.5,1-5.72-3.78-6.13-9.46-.83-18.92-1.6-28.34-2.8a234.15,234.15,0,0,0-25.79-2.3,25.92,25.92,0,0,1-11-3.07c-.77-.39-2.09-.49-2-1.75.1-1,1.07-1.51,1.92-2a27.47,27.47,0,0,1,16.82-3.71,82.07,82.07,0,0,1,21,4.69c5.57,2.09,11.29,3.75,16.94,5.6,11.16,3.65,15.29,1.52,23.87-7.79,3.77-4.09,5.75-9.18,7.21-14.61,1.32-4.89,3-9.67,3.95-14.67.44-2.31-.44-3.33-2.82-3.07a5.09,5.09,0,0,0-1.88.58c-8,4.57-17,5.66-25.85,7.27-13.19,2.4-26.35,2-39.57.68a27.1,27.1,0,0,1-9.55-2.92c-2.1-1.06-1.75-2.13-.81-3.55,2.13-3.24,5.71-4.4,8.91-6.06,5.32-2.75,10.68-1.57,15.49.89,9.78,5,19.94,5,30.31,3.24A64,64,0,0,0,279.25,7,27.38,27.38,0,0,0,292.63-11.2a2.85,2.85,0,0,1-.17-2.85l.05-.21c0-.24.07-.49.11-.73l.21,0-.21.07a.58.58,0,0,1,.19-.85q0-6.32-.07-12.61l0-.88h0c-.34-.6-.09-.72.48-.58a.5.5,0,0,1,.19-.24l-.08-.9v0c-1-2.35,0-4.77-.27-7.15a.32.32,0,0,1-.13-.38,26.61,26.61,0,0,1-.39-3.54c0-2-1-4-.06-6.08v.06c-1-.79-.79-1.88-.74-2.92-1.41-2.79-2.43-3.1-5-1.71-3.65,2-6.31,5.12-9.45,7.68-6,4.94-13.17,7.81-19.91,11.44-1.58.85-3.17,1.67-4.75,2.5a11.38,11.38,0,0,1-5.21,2.52.37.37,0,0,1-.36.24.54.54,0,0,1-.77.25h0A4.14,4.14,0,0,1,243.85-27a.44.44,0,0,1-.37.23l-.82.32a.38.38,0,0,1-.34.22l-.86.34a.27.27,0,0,1-.3.19l-.88.33-.71.59a.49.49,0,0,1-.77.2h0l-.7.18-1.26.43a1.61,1.61,0,0,1-1.51.5l-.24.09-.07,0-1.36.48a10.57,10.57,0,0,1-4.42,1.72.38.38,0,0,1-.4.2c-1.86.87-3.71,1.76-6.12,1.41A13,13,0,0,1,228-23.71l.63-.48,6.9-4.9,0,0a8.58,8.58,0,0,1,3.66-2.5c7.47-5,15.39-9.36,22.84-14.46,3.92-2.68,8.33-4.78,11.79-8,4-3.73,9.24-7.06,7.43-14a66.77,66.77,0,0,0-2.79-9c-1.61-3.85-3.62-7.56-3.51-11.9,0-1.08-.8-1.5-1.51-1.86s-1.39.13-2,.74A32.16,32.16,0,0,1,258-81.73a11.52,11.52,0,0,1-2.8.51c-2.34.13-3.08-.81-2.11-2.9a20.65,20.65,0,0,1,6.48-8.47c1.76-1.28,2.94-3.33,4.44-5a45.58,45.58,0,0,1,5.14-4.77c1.29-1,2.53-2.27,2.3-4.3-.25-2.22,1.15-4.11,1.48-6.24s-.28-2.59-2.12-1.81c-6.2,2.67-11.36.69-16.42-3.17-4.54-3.46-9-7.07-14.27-9.51-.61-.28-1.22-.55-1.84-.8-5.18-2.11-7.15-1.32-8.74,3.88A137.9,137.9,0,0,0,224.31-95a58.76,58.76,0,0,1-6.44,22.23c-.76,1.48-1.42,3.43-3.55,3.31-2.32-.12-3.52-1.85-4.13-3.88a61.78,61.78,0,0,1-2-25.35,133.47,133.47,0,0,1,9.49-35.43c.56-1.35.72-2.3-.35-3.31l-12,.51-.78,0c-5.68,1.06-11.42,1.8-17,3.41l-.59.22c-6.55,1.72-10.76,6.48-14.89,11.36l-.56,1c-3,7.51-3.41,15.27-2.23,23.18v0l.24,1.23v0l.18.85v0l.78,2.75,0,.06q.85,2.37,1.73,4.74a3.07,3.07,0,0,1,.84,1.84l.49,1.3v0a10.71,10.71,0,0,1,1.56,4.41v0a1.2,1.2,0,0,1,.4,1.23h0a2.59,2.59,0,0,1,.59,2l.18.77a4.26,4.26,0,0,1,.67,2.84h0a3.62,3.62,0,0,1,.45,2.39l-.19-.09.19.1a5.83,5.83,0,0,1,.47,2.88,32.65,32.65,0,0,1,.8,8.24c0,2.2.84,5.88-.92,6.24-2.44.51-4.54-2.26-6-4.57-.21-.32-.4-.65-.59-1-2.94-4.92-2.93-10.35-2.72-15.82a1.28,1.28,0,0,1,0-1.31l.19-.14-.2.13a6.25,6.25,0,0,1-.06-3.24v0l-.27-4.45,0-.06-.07-.78.15,0h-.16l0-.8.14-.12-.16.1a2.16,2.16,0,0,1-.06-1.71l0-.62v-1c-.09-.46.1-.62.55-.52l-.07-.06c-1.36-.45-.62-1.62-.84-2.46l-.19-1.28,0-.23-.1-1v0l-.2-.77.14-.09-.16.06L166.82-97l-.13-.65a39,39,0,0,1-.6-18v0l-.13-2h0c0-.32-.08-.65-.11-1-.1-.63-.21-1.26-.28-1.89-.25-2.21-1.23-3.21-3.48-2.15-3.45,2.36-7.31,3.92-11,5.83l-1.08.61-13.27,8.19-.68.47-.43.39a6.33,6.33,0,0,1-1.07.94c-7.52,4.13-12.27,10.83-16.6,17.91-2.5,4.08-2.81,8.51-1.75,13.06,1.94,8.3,5.59,15.88,10,23.14,4.83,8,10.18,15.49,17.1,21.9a32.83,32.83,0,0,1,8.16,12.76c.4,1.06.87,2.46,0,3.29s-2.18,0-3.16-.49a31,31,0,0,1-12.26-10.2,88.25,88.25,0,0,0-8.64-10.35c-1.69-1.76-2.55-3.93-3.6-6-2.21-4.47-4.42-8.94-6.73-13.36C114.35-60,113-65.78,111.7-71.58c-.61-2.68-.93-5.48-3.19-7.54-1.45-1.32-2.56-1.37-4.29-.38-6.94,4-12.31,9.76-17.69,15.48C78.31-55.28,70-46.61,63.07-36.77A133.11,133.11,0,0,0,46.92-5.49,39.28,39.28,0,0,0,45.71.69l0,0C44.06,13.51,47.3,25.19,54.31,35.9A140.36,140.36,0,0,0,77,62.9l1,.79a77.15,77.15,0,0,0,6.64,4.54c6.63,3.63,13.76,5.41,19.9-3.25a23.32,23.32,0,0,1,8.18-7.09,2,2,0,0,1,1.59-1l1.12-.56a1.24,1.24,0,0,1,1.2-.51,15.29,15.29,0,0,1,5.16-1.82h0c5.34-2.89,11.58-2.87,16.94-5.8-13.48,14.9-25.86,30.41-39.61,44.69-.87,1-1.74,2.1-2.62,3.14ZM81.66-31.35a7.13,7.13,0,0,1,2.48,3.74c2.72,6.5,5.86,12.69,10.63,18C100-3.84,104.83,2.46,112,6.24a52.35,52.35,0,0,1,6.32,4c2.84,2.06,2.68,3.26-.34,4.89-4.67,2.51-9.08,2.54-13.22-1.15a21.61,21.61,0,0,0-3.27-2.34c-10-6-15.33-15.55-20.28-25.48a7.77,7.77,0,0,1-.74-3.05C80.23-21.69,81.3-26.33,81.66-31.35Zm85.67,139.76c-1.46-1.39-3.55-2.43-2.72-4.72a17.4,17.4,0,0,1,2.88-5.55A3.43,3.43,0,0,1,171,96.66c2.76.74,5.6,1.34,8.12,2.8,6.5,3.76,11.76,9.18,17.94,13.38,1.12.76,1.26,1.38-.31,1.78A42.89,42.89,0,0,1,181.12,116C175.38,115.34,171.81,111,167.33,108.41Zm-.86-61.24a13.42,13.42,0,0,1-3.54-3.94c-2-3.79.3-8,4.53-7.75,5.1.31,9.77,2,12.65,6.7a4.68,4.68,0,0,1-2.76,7.13C173.4,50.31,169.54,50.15,166.47,47.17Zm9-91.48c1.63-2,4.5-2,6.9.16,3.6,3.22,5,7.15,3.6,11.91-.51,1.68-1.17,3.45-3.09,3.74A4.69,4.69,0,0,1,178-30.85a30.81,30.81,0,0,1-3.51-10A4.15,4.15,0,0,1,175.48-44.31ZM219.76,85.93c-7.42.39-13-2.11-18.08-6.2a9.13,9.13,0,0,1-2-2.42c-1.35-2.28-.13-4.25,1.37-5.66,1.32-1.23,2.25.67,3.16,1.37C209.35,77,213.85,81.76,219.76,85.93ZM137.45,14.19c-3.38-3.22-4.26-8-3.71-13.15.1-.88-.09-2.08,1.07-2.39s1.81.49,2.47,1.19c3.47,3.73,4.69,8.25,4.59,13.21a2.28,2.28,0,0,1-1.26,2.37C139.49,15.92,138.79,15.38,137.45,14.19ZM182,16.48c2-2.26,6.54-3.18,8.2-1.51,1.42,1.42,1.08,3,0,4.4-1.73,2.26-6.29,3-8,1.2C181,19.42,180.53,18,182,16.48Zm-29.53,58.7c1.66,1.47,3.44,2.77,4.53,4.71.65,1.15.77,2.54-.36,3.4s-2-.29-2.74-.89C151.63,80.61,151.17,78.22,152.48,75.18Z"/><path class="cls-3" d="M95.36,745.35c-3.22,4.48-7.46,8-11.31,11.85-4.37,4.39-7.4,9.77-11.15,14.62a2,2,0,0,0,.31,3c3,2.26,4.75,5.47,6.63,8.58,1.76,2.91,2.61,3,4.39.15,3.74-6,6.69-12.5,10-18.75,2.79-5.23,6.22-10.17,8.93-15.38,9.58-18.4,24.44-32.55,37.5-48.16,1.83-2.18,3.63-4.38,5.78-7-.32,2.32-.28,4.35-.9,6.16-1.65,4.9-2.86,10-5.12,14.65a15.42,15.42,0,0,1-3.67,4.71c-5.88,5.38-11.55,10.94-15.54,18-1.84,3.24-3.34,7.07-2.64,10.27.68,3,1.57,6.49,3.66,9.34a54.64,54.64,0,0,0,10.45,11.39c5.36,4.16,9.87,9.32,16.06,12.52,5.06,2.61,10,5.09,15.88,4.94,14.3-.38,27.17-5.15,39-12.83,2.36-1.52,3.76-4.28,6.43-5.5a4.5,4.5,0,0,1,2.75-1.58l0-.06a229.31,229.31,0,0,0,25.09-18.9c1.87-1.61,3.63-3.36,5.44-5l1.55-1.68,3.36-4,3.91-5c3.9-5.7,7.87-11.36,10.26-17.93,1.64-4.5,1-5.72-3.78-6.13-9.46-.83-18.92-1.6-28.34-2.8a234.15,234.15,0,0,0-25.79-2.3,25.92,25.92,0,0,1-11-3.07c-.77-.39-2.09-.49-2-1.75.1-1,1.07-1.51,1.92-2a27.47,27.47,0,0,1,16.82-3.71,82.07,82.07,0,0,1,21,4.69c5.57,2.09,11.29,3.75,16.94,5.6,11.16,3.65,15.29,1.52,23.87-7.79,3.77-4.09,5.75-9.18,7.21-14.61,1.32-4.89,3-9.67,3.95-14.67.44-2.31-.44-3.33-2.82-3.07a5.09,5.09,0,0,0-1.88.58c-8,4.57-17,5.66-25.85,7.27-13.19,2.4-26.35,2-39.57.68a27.1,27.1,0,0,1-9.55-2.92c-2.1-1.06-1.75-2.13-.81-3.55,2.13-3.24,5.71-4.4,8.91-6.06,5.32-2.75,10.68-1.57,15.49.89,9.78,5,19.94,5,30.31,3.24A64,64,0,0,0,279.25,655a27.38,27.38,0,0,0,13.38-18.16,2.85,2.85,0,0,1-.17-2.85l.05-.21c0-.24.07-.49.11-.73l.21,0-.21.07a.58.58,0,0,1,.19-.85q0-6.31-.07-12.61l0-.88h0c-.34-.6-.09-.72.48-.58a.5.5,0,0,1,.19-.24l-.08-.9v0c-1-2.35,0-4.77-.27-7.15a.32.32,0,0,1-.13-.38,26.61,26.61,0,0,1-.39-3.54c0-2-1-4.05-.06-6.08v.06c-1-.79-.79-1.88-.74-2.92-1.41-2.79-2.43-3.1-5-1.71-3.65,2-6.31,5.12-9.45,7.68-6,4.94-13.17,7.81-19.91,11.44-1.58.85-3.17,1.67-4.75,2.5a11.38,11.38,0,0,1-5.21,2.52.37.37,0,0,1-.36.24.54.54,0,0,1-.77.25h0a4.14,4.14,0,0,1-2.42,1.06.44.44,0,0,1-.37.23l-.82.32a.38.38,0,0,1-.34.22l-.86.34a.27.27,0,0,1-.3.19l-.88.33-.71.59a.49.49,0,0,1-.77.2h0l-.7.18-1.26.43a1.61,1.61,0,0,1-1.51.5l-.24.09-.07,0-1.36.48a10.57,10.57,0,0,1-4.42,1.72.38.38,0,0,1-.4.2c-1.86.87-3.71,1.76-6.12,1.41a13,13,0,0,1,5.22-4.16l.63-.48,6.9-4.9,0,0a8.58,8.58,0,0,1,3.66-2.5c7.47-5,15.39-9.36,22.84-14.46,3.92-2.68,8.33-4.78,11.79-8,4-3.73,9.24-7.06,7.43-14a66.77,66.77,0,0,0-2.79-9c-1.61-3.85-3.62-7.56-3.51-11.9,0-1.08-.8-1.5-1.51-1.86s-1.39.13-2,.74A32.16,32.16,0,0,1,258,566.27a11.52,11.52,0,0,1-2.8.51c-2.34.13-3.08-.81-2.11-2.9a20.65,20.65,0,0,1,6.48-8.47c1.76-1.28,2.94-3.33,4.44-5a45.58,45.58,0,0,1,5.14-4.77c1.29-1,2.53-2.27,2.3-4.3-.25-2.22,1.15-4.11,1.48-6.24s-.28-2.59-2.12-1.81c-6.2,2.67-11.36.69-16.42-3.17-4.54-3.46-9-7.07-14.27-9.51-.61-.28-1.22-.55-1.84-.8-5.18-2.11-7.15-1.32-8.74,3.88A137.9,137.9,0,0,0,224.31,553a58.76,58.76,0,0,1-6.44,22.23c-.76,1.48-1.42,3.43-3.55,3.31-2.32-.12-3.52-1.85-4.13-3.88a61.78,61.78,0,0,1-2-25.35,133.47,133.47,0,0,1,9.49-35.43c.56-1.35.72-2.3-.35-3.31l-12,.51-.78.05c-5.68,1.06-11.42,1.8-17,3.41l-.59.22c-6.55,1.72-10.76,6.48-14.89,11.36l-.56,1c-3,7.51-3.41,15.27-2.23,23.18v0l.24,1.23v0l.18.85v0l.78,2.75,0,.06q.85,2.37,1.73,4.74a3.07,3.07,0,0,1,.84,1.84l.49,1.3v0a10.71,10.71,0,0,1,1.56,4.41v-.05a1.2,1.2,0,0,1,.4,1.23h0a2.59,2.59,0,0,1,.59,2l.18.77a4.26,4.26,0,0,1,.67,2.84h0a3.62,3.62,0,0,1,.45,2.39l-.19-.09.19.1a5.83,5.83,0,0,1,.47,2.88,32.65,32.65,0,0,1,.8,8.24c0,2.2.84,5.88-.92,6.24-2.44.51-4.54-2.26-6-4.57-.21-.32-.4-.65-.59-1-2.94-4.92-2.93-10.35-2.72-15.82a1.28,1.28,0,0,1,0-1.31l.19-.14-.2.13a6.25,6.25,0,0,1-.06-3.24v0l-.27-4.45,0-.06-.07-.78.15,0h-.16l0-.8.14-.12-.16.1a2.16,2.16,0,0,1-.06-1.71l0-.62v-1c-.09-.46.1-.62.55-.52l-.07-.06c-1.36-.45-.62-1.62-.84-2.46l-.19-1.28,0-.23-.1-1v.05l-.2-.77.14-.09-.16.06-.27-1.29-.13-.65a39,39,0,0,1-.6-18v0l-.13-2h0c0-.32-.08-.65-.11-1-.1-.63-.21-1.26-.28-1.89-.25-2.21-1.23-3.21-3.48-2.15-3.45,2.36-7.31,3.92-11,5.83l-1.08.61-13.27,8.19-.68.47-.43.39a6.33,6.33,0,0,1-1.07.94c-7.52,4.13-12.27,10.83-16.6,17.91-2.5,4.08-2.81,8.51-1.75,13.06,1.94,8.3,5.59,15.88,10,23.14,4.83,8,10.18,15.49,17.1,21.9a32.83,32.83,0,0,1,8.16,12.76c.4,1.06.87,2.46,0,3.29s-2.18,0-3.16-.49a31,31,0,0,1-12.26-10.2,88.25,88.25,0,0,0-8.64-10.35c-1.69-1.76-2.55-3.93-3.6-6-2.21-4.47-4.42-8.94-6.73-13.36-2.8-5.34-4.11-11.12-5.45-16.92-.61-2.68-.93-5.48-3.19-7.54-1.45-1.32-2.56-1.37-4.29-.38-6.94,4-12.31,9.76-17.69,15.48-8.22,8.74-16.52,17.41-23.46,27.25a133.11,133.11,0,0,0-16.15,31.28,39.28,39.28,0,0,0-1.21,6.18l0,0c-1.63,12.84,1.61,24.52,8.62,35.23A140.36,140.36,0,0,0,77,710.9l1,.79a77.15,77.15,0,0,0,6.64,4.54c6.63,3.63,13.76,5.41,19.9-3.25a23.32,23.32,0,0,1,8.18-7.09,2,2,0,0,1,1.59-.95l1.12-.56a1.24,1.24,0,0,1,1.2-.51,15.29,15.29,0,0,1,5.16-1.82h0c5.34-2.89,11.58-2.87,16.94-5.8-13.48,14.9-25.86,30.41-39.61,44.69-.87,1.05-1.74,2.1-2.62,3.14Zm-13.7-128.7a7.13,7.13,0,0,1,2.48,3.74c2.72,6.5,5.86,12.69,10.63,18,5.27,5.81,10.06,12.11,17.21,15.89a52.35,52.35,0,0,1,6.32,4c2.84,2.06,2.68,3.26-.34,4.89-4.67,2.51-9.08,2.54-13.22-1.15a21.61,21.61,0,0,0-3.27-2.34c-10-6-15.33-15.55-20.28-25.48a7.77,7.77,0,0,1-.74-3C80.23,626.31,81.3,621.67,81.66,616.65Zm85.67,139.76c-1.46-1.39-3.55-2.43-2.72-4.72a17.4,17.4,0,0,1,2.88-5.55,3.43,3.43,0,0,1,3.51-1.48c2.76.74,5.6,1.34,8.12,2.8,6.5,3.76,11.76,9.18,17.94,13.38,1.12.76,1.26,1.38-.31,1.78A42.89,42.89,0,0,1,181.12,764C175.38,763.34,171.81,759,167.33,756.41Zm-.86-61.24a13.42,13.42,0,0,1-3.54-3.94c-2-3.79.3-8,4.53-7.75,5.1.31,9.77,2,12.65,6.7a4.68,4.68,0,0,1-2.76,7.13C173.4,698.31,169.54,698.15,166.47,695.17Zm9-91.48c1.63-2,4.5-2,6.9.16,3.6,3.22,5,7.15,3.6,11.91-.51,1.68-1.17,3.45-3.09,3.74a4.69,4.69,0,0,1-4.89-2.35,30.81,30.81,0,0,1-3.51-10A4.15,4.15,0,0,1,175.48,603.69Zm44.28,130.24c-7.42.39-13-2.11-18.08-6.2a9.13,9.13,0,0,1-2-2.42c-1.35-2.28-.13-4.25,1.37-5.66,1.32-1.23,2.25.67,3.16,1.37C209.35,725,213.85,729.76,219.76,733.93Zm-82.31-71.74c-3.38-3.22-4.26-8-3.71-13.15.1-.88-.09-2.08,1.07-2.39s1.81.49,2.47,1.19c3.47,3.73,4.69,8.25,4.59,13.21a2.28,2.28,0,0,1-1.26,2.37C139.49,663.92,138.79,663.38,137.45,662.19ZM182,664.48c2-2.26,6.54-3.18,8.2-1.51,1.42,1.42,1.08,3,0,4.4-1.73,2.26-6.29,3-8,1.2C181,667.42,180.53,666,182,664.48Zm-29.53,58.7c1.66,1.47,3.44,2.77,4.53,4.71.65,1.15.77,2.54-.36,3.4s-2-.29-2.74-.89C151.63,728.61,151.17,726.22,152.48,723.18Z"/><path class="cls-3" d="M-.76,539.16l-1.7-2c-9-9.12-17-19.19-25.81-28.75,3.69,1.71,8.18,1.32,11.85,3h0a9.64,9.64,0,0,1,3.6,1,.8.8,0,0,1,.84.28l.77.32a1.19,1.19,0,0,1,1.08.57A12.87,12.87,0,0,1-4.7,518c3.9,5.66,9.15,4,14.15,1,1.76-1,3.37-2.37,5.05-3.57l.75-.61a126.67,126.67,0,0,0,18-20.22c5.7-7.89,8.75-16.24,8.36-25.1l0,0a23.42,23.42,0,0,0-.49-4.24,74.72,74.72,0,0,0-9.72-20.83c-4.4-6.44-9.86-12-15.24-17.57-3.53-3.66-7-7.35-11.81-9.72a2.39,2.39,0,0,0-3.11.53c-1.75,1.57-2.15,3.54-2.76,5.45a55,55,0,0,1-4.95,12.13c-1.94,3.23-3.8,6.48-5.67,9.73a19.81,19.81,0,0,1-3,4.43A79.73,79.73,0,0,0-22,457.19a28.16,28.16,0,0,1-9.45,7.86c-.73.39-1.68,1.16-2.31.54s-.11-1.54.24-2.3a28.65,28.65,0,0,1,6.66-9.39,89.61,89.61,0,0,0,13.65-16.32,66.49,66.49,0,0,0,8.6-16.75c1-3.24,1.09-6.31-.46-9-2.69-4.67-5.7-9.05-10.87-11.48a3.28,3.28,0,0,1-.71-.58l-.29-.25-.46-.29-9-4.9-.75-.36a60,60,0,0,1-7.57-3.39c-1.56-.61-2.32.15-2.63,1.71-.09.44-.21.89-.32,1.33,0,.23-.09.46-.14.69h0L-38,395.7h0a27.21,27.21,0,0,1-1.53,12.61l-.14.46-.27.92-.11,0,.1.05-.19.55v0l-.13.71,0,.16-.21.9c-.22.6.25,1.37-.76,1.77l0,0c.33-.1.46,0,.36.33l-.06.73,0,.44a1.53,1.53,0,0,1-.15,1.19l-.11-.06.1.08-.09.56h-.11l.11,0-.1.55v0l-.46,3.12v0a4.33,4.33,0,0,1-.24,2.26l-.14-.08.14.09a.88.88,0,0,1-.06.91c-.18,3.8-.5,7.59-2.92,11.2-.16.24-.31.49-.48.72-1.23,1.7-2.91,3.76-4.64,3.56-1.24-.15-.42-2.77-.28-4.3a23.61,23.61,0,0,1,1.08-5.79,4.3,4.3,0,0,1,.52-2l.14-.09-.15.08a2.82,2.82,0,0,1,.47-1.7h0a3.3,3.3,0,0,1,.66-2l.18-.55a2.08,2.08,0,0,1,.54-1.42h0a.9.9,0,0,1,.36-.87v0a8.76,8.76,0,0,1,1.39-3.17v0l.44-.94a2.5,2.5,0,0,1,.72-1.33l1.53-3.41,0-.05.73-2v0l.17-.61v0l.26-.88v0c1.33-5.59,1.5-11-.19-16l-.34-.68c-2.68-3.15-5.43-6.21-10-7l-.42-.12c-3.91-.78-8-1-12-1.34h-.56l-8.59.38A1.83,1.83,0,0,0-74.1,386a81.19,81.19,0,0,1,4.68,24.14,44.32,44.32,0,0,1-3,17.8,4.15,4.15,0,0,1-3.21,3c-1.54.21-1.9-1.11-2.35-2.1a35.25,35.25,0,0,1-3.29-15.11,86.6,86.6,0,0,0-2-20.14c-.84-3.53-2.21-4-6.07-2.18-.46.22-.92.44-1.37.68-3.93,2-7.38,4.81-10.87,7.5-3.87,3-7.71,4.7-12,3.21-1.27-.43-1.74,0-1.64,1.39s1,2.7.69,4.26a2.7,2.7,0,0,0,1.4,2.87,23.85,23.85,0,0,1,3.41,3c1,1.06,1.7,2.42,2.89,3.21a11.29,11.29,0,0,1,4.16,5.51c.57,1.4,0,2.1-1.7,2.15a7.69,7.69,0,0,1-2-.19,18.57,18.57,0,0,1-9.12-5.06c-.38-.39-.81-.71-1.38-.39s-1.16.64-1.2,1.39c-.18,3-1.86,5.73-3.25,8.51a52.31,52.31,0,0,0-2.57,6.46c-1.73,5,1.86,7,4.5,9.33,2.3,2.05,5.34,3.25,8,4.88,5.06,3.1,10.51,5.62,15.58,8.69a4.9,4.9,0,0,1,2.49,1.52h0l4.67,3,.43.3a7.3,7.3,0,0,1,3.5,2.58,6.87,6.87,0,0,1-4.32-.61.22.22,0,0,1-.27-.11,6.74,6.74,0,0,1-3.08-.93l-1-.25,0,0-.17-.05a1,1,0,0,1-1-.26l-.89-.22-.49-.08h0c-.24.14-.42.13-.54-.09l-.48-.37-.61-.18a.16.16,0,0,1-.21-.12l-.59-.18a.22.22,0,0,1-.23-.13l-.58-.17a.27.27,0,0,1-.25-.14,2.57,2.57,0,0,1-1.68-.59h0a.36.36,0,0,1-.54-.13.23.23,0,0,1-.25-.14,6.9,6.9,0,0,1-3.59-1.44c-1.09-.49-2.19-1-3.27-1.46-4.63-2.12-9.61-3.69-13.65-6.76-2.1-1.6-3.83-3.64-6.34-4.79-1.77-.81-2.52-.53-3.71,1.5a2.39,2.39,0,0,1-.71,2.09v0c.55,1.36-.3,2.83-.41,4.24a20.32,20.32,0,0,1-.5,2.49.28.28,0,0,1-.12.28c-.34,1.67.24,3.3-.63,5v0l-.11.63a.34.34,0,0,1,.13.16c.41-.14.59-.07.3.37h0l-.07.62q-.42,4.4-.82,8.8c.22.13.23.33.08.58l-.14,0,.15,0,0,.51,0,.14a2,2,0,0,1-.3,2A15.2,15.2,0,0,0-127,488.16,40.76,40.76,0,0,0-111.8,492c7.36.59,14.68,0,22-4.1,3.62-2,7.55-3.16,11.21-1.57,2.21,1,4.72,1.56,6.06,3.68.59.94.77,1.66-.8,2.53a23.2,23.2,0,0,1-7.07,2.62c-9.6,1.74-19.1,2.81-28.46,1.94-6.29-.58-12.68-.8-18.17-3.5a3.27,3.27,0,0,0-1.33-.28c-1.7,0-2.39.72-2.22,2.31.38,3.43,1.3,6.66,2,10,.73,3.7,1.84,7.12,4.31,9.75,5.61,6,8.45,7.2,16.72,4,4.18-1.64,8.41-3.15,12.54-4.94a69.19,69.19,0,0,1,15.4-4.56,18.67,18.67,0,0,1,11.9,1.57c.58.28,1.25.56,1.26,1.27,0,.87-1,1-1.53,1.34a22,22,0,0,1-8.12,2.81A186.69,186.69,0,0,0-94.84,520c-6.87,1.42-13.73,2.53-20.59,3.68-3.47.58-4,1.47-3.1,4.51,1.33,4.43,3.83,8.14,6.3,11.88l2.51,3.21,2.18,2.6,1,1.07c1.2,1.07,2.36,2.17,3.61,3.19A130.07,130.07,0,0,0-86,561.79l0,0a2.68,2.68,0,0,1,1.89.94c1.85.69,2.69,2.52,4.29,3.44a48.08,48.08,0,0,0,27.35,6.56c4.21-.25,7.94-2.28,11.75-4.41,4.65-2.61,8.22-6.49,12.33-9.71a50.23,50.23,0,0,0,8.23-8.58,20.21,20.21,0,0,0,3.2-6.74c.7-2.28-.15-4.85-1.28-7-2.44-4.67-6.19-8.2-10.1-11.59a8.44,8.44,0,0,1-2.35-3.07c-1.34-3.13-1.9-6.58-2.8-9.9a22,22,0,0,1-.26-4.24c1.38,1.67,2.55,3.09,3.73,4.5,8.46,10.09,18.3,19.06,24.08,31.31,1.63,3.47,3.8,6.7,5.5,10.17,2,4.16,3.75,8.49,6.08,12.47,1.1,1.89,1.72,1.77,3.17-.37s3-4.63,5.3-6.39a1.4,1.4,0,0,0,.41-2.13c-2.41-3.15-4.26-6.72-7.15-9.52C4.82,545.1,2,542.91-.07,540Zm18.4-79.78a6,6,0,0,1-.72,2.17c-4.17,7.23-8.63,14.24-16.16,19a19.54,19.54,0,0,0-2.5,1.83c-3.21,2.83-6.38,3.07-9.59,1.61-2.08-.95-2.12-1.78.05-3.39a47.06,47.06,0,0,1,4.79-3.15c5.39-3.08,9.22-7.77,13.37-12.14a53.28,53.28,0,0,0,8.76-13.18,6.23,6.23,0,0,1,2-2.76C17.61,452.87,18.1,456,17.64,459.38ZM-63,558.25a31.26,31.26,0,0,1-11.17,0c-1.11-.18-1-.63-.12-1.23,4.71-3.3,8.83-7.4,13.74-10.43a28.37,28.37,0,0,1,6-2.44,2.15,2.15,0,0,1,2.44.82,9.8,9.8,0,0,1,1.74,3.69c.46,1.55-1.12,2.41-2.25,3.46C-56,554.14-58.81,557.42-63,558.25Zm6.78-46.77c-2.23-.36-3-2.76-1.55-4.8,2.36-3.45,5.83-4.92,9.52-5.45,3.06-.44,4.46,2.36,2.79,5.13a12.13,12.13,0,0,1-2.79,3A8.8,8.8,0,0,1-56.21,511.48Zm7.56-63a24.87,24.87,0,0,1-3.14,7.17,4,4,0,0,1-3.66,1.94c-1.36-.09-1.74-1.28-2-2.42-.73-3.23.53-6.07,3.32-8.53,1.86-1.63,3.93-1.82,5-.53A2.51,2.51,0,0,1-48.65,448.44ZM-77,529.66c.7-.55,1.49-1.93,2.36-1.15a2.71,2.71,0,0,1,.64,3.86,8.26,8.26,0,0,1-1.58,1.81c-3.87,3.16-8.08,5.25-13.4,5.43C-84.48,536.34-80.95,532.75-77,529.66Zm49.34-44.06c-.77-.28-.81-.91-.76-1.57a14.51,14.51,0,0,1,4.11-9.5c.51-.53,1.12-1.1,1.85-1s.61,1,.62,1.61c.09,3.57-.84,6.94-3.47,9.39C-26.36,485.47-26.89,485.88-27.67,485.6Zm-30.26,6.13c-1.38,1.33-4.62,1.13-5.73-.34a2.12,2.12,0,0,1,.28-3.07c1.3-1.27,4.55-.91,5.82.55C-56.59,489.83-57,490.86-57.93,491.73Zm16.59,41.4c-.59.47-1.32,1.28-2,.79s-.59-1.51-.05-2.35A17.41,17.41,0,0,1-39.86,528,4.14,4.14,0,0,1-41.34,533.13Z"/><path class="cls-3" d="M647.24,539.16l-1.7-2c-9-9.12-17-19.19-25.81-28.75,3.69,1.71,8.18,1.32,11.85,3h0a9.64,9.64,0,0,1,3.6,1,.8.8,0,0,1,.84.28l.77.32a1.19,1.19,0,0,1,1.08.57A12.87,12.87,0,0,1,643.3,518c3.9,5.66,9.15,4,14.15,1,1.76-1,3.37-2.37,5-3.57l.75-.61a126.67,126.67,0,0,0,18-20.22c5.7-7.89,8.75-16.24,8.36-25.1l0,0a23.42,23.42,0,0,0-.49-4.24,74.72,74.72,0,0,0-9.72-20.83c-4.4-6.44-9.86-12-15.24-17.57-3.53-3.66-7-7.35-11.81-9.72a2.39,2.39,0,0,0-3.11.53c-1.75,1.57-2.15,3.54-2.76,5.45a55,55,0,0,1-5,12.13c-1.94,3.23-3.8,6.48-5.67,9.73a19.81,19.81,0,0,1-3,4.43,79.73,79.73,0,0,0-6.86,7.74,28.16,28.16,0,0,1-9.45,7.86c-.73.39-1.68,1.16-2.31.54s-.11-1.54.24-2.3a28.65,28.65,0,0,1,6.66-9.39,89.61,89.61,0,0,0,13.65-16.32,66.49,66.49,0,0,0,8.6-16.75c1-3.24,1.09-6.31-.46-9-2.69-4.67-5.7-9.05-10.87-11.48a3.28,3.28,0,0,1-.71-.58l-.29-.25-.46-.29-9-4.9-.75-.36a60,60,0,0,1-7.57-3.39c-1.56-.61-2.32.15-2.63,1.71-.09.44-.21.89-.32,1.33,0,.23-.09.46-.14.69h0L610,395.7h0a27.21,27.21,0,0,1-1.53,12.61l-.14.46-.27.92-.11,0,.1.05-.19.55v0l-.13.71,0,.16-.21.9c-.22.6.25,1.37-.76,1.77l0,0c.33-.1.46,0,.36.33l-.06.73,0,.44a1.53,1.53,0,0,1-.15,1.19l-.11-.06.1.08-.09.56h-.11l.11,0-.1.55v0l-.46,3.12v0a4.33,4.33,0,0,1-.24,2.26l-.14-.08.14.09a.88.88,0,0,1-.06.91c-.18,3.8-.5,7.59-2.92,11.2-.16.24-.31.49-.48.72-1.23,1.7-2.91,3.76-4.64,3.56-1.24-.15-.42-2.77-.28-4.3a23.61,23.61,0,0,1,1.08-5.79,4.3,4.3,0,0,1,.52-2l.14-.09-.15.08a2.82,2.82,0,0,1,.47-1.7h0a3.3,3.3,0,0,1,.66-2l.18-.55a2.08,2.08,0,0,1,.54-1.42h0a.9.9,0,0,1,.36-.87v0a8.76,8.76,0,0,1,1.39-3.17v0l.44-.94a2.5,2.5,0,0,1,.72-1.33l1.53-3.41,0-.05.73-2v0l.17-.61v0l.26-.88v0c1.33-5.59,1.5-11-.19-16l-.34-.68c-2.68-3.15-5.43-6.21-10-7l-.42-.12c-3.91-.78-8-1-12-1.34h-.56l-8.59.38a1.83,1.83,0,0,0-.45,2.32,81.19,81.19,0,0,1,4.68,24.14,44.32,44.32,0,0,1-3,17.8,4.15,4.15,0,0,1-3.21,3c-1.54.21-1.9-1.11-2.35-2.1a35.25,35.25,0,0,1-3.29-15.11,86.6,86.6,0,0,0-2-20.14c-.84-3.53-2.21-4-6.07-2.18-.46.22-.92.44-1.37.68-3.93,2-7.38,4.81-10.87,7.5-3.87,3-7.71,4.7-12,3.21-1.27-.43-1.74,0-1.64,1.39s1,2.7.69,4.26a2.7,2.7,0,0,0,1.4,2.87,23.85,23.85,0,0,1,3.41,3c1,1.06,1.7,2.42,2.89,3.21a11.29,11.29,0,0,1,4.16,5.51c.57,1.4,0,2.1-1.7,2.15a7.69,7.69,0,0,1-2-.19,18.57,18.57,0,0,1-9.12-5.06c-.38-.39-.81-.71-1.38-.39s-1.16.64-1.2,1.39c-.18,3-1.86,5.73-3.25,8.51a52.31,52.31,0,0,0-2.57,6.46c-1.73,5,1.86,7,4.5,9.33,2.3,2.05,5.34,3.25,8,4.88,5.06,3.1,10.51,5.62,15.58,8.69a4.9,4.9,0,0,1,2.49,1.52h0l4.67,3,.43.3a7.3,7.3,0,0,1,3.5,2.58,6.87,6.87,0,0,1-4.32-.61.22.22,0,0,1-.27-.11,6.74,6.74,0,0,1-3.08-.93l-1-.25,0,0-.17-.05a1,1,0,0,1-1.05-.26l-.89-.22-.49-.08h0c-.24.14-.42.13-.54-.09l-.48-.37-.61-.18a.16.16,0,0,1-.21-.12l-.59-.18a.22.22,0,0,1-.23-.13l-.58-.17a.27.27,0,0,1-.25-.14,2.57,2.57,0,0,1-1.68-.59h0a.36.36,0,0,1-.54-.13.23.23,0,0,1-.25-.14,6.9,6.9,0,0,1-3.59-1.44c-1.09-.49-2.19-1-3.27-1.46-4.63-2.12-9.61-3.69-13.65-6.76-2.1-1.6-3.83-3.64-6.34-4.79-1.77-.81-2.52-.53-3.71,1.5a2.39,2.39,0,0,1-.71,2.09v0c.55,1.36-.3,2.83-.41,4.24a20.32,20.32,0,0,1-.5,2.49.28.28,0,0,1-.12.28c-.34,1.67.24,3.3-.63,5v0l-.11.63a.34.34,0,0,1,.13.16c.41-.14.59-.07.3.37h0l-.07.62q-.42,4.4-.82,8.8c.22.13.23.33.08.58l-.14,0,.15,0,0,.51,0,.14a2,2,0,0,1-.3,2A15.2,15.2,0,0,0,521,488.16,40.76,40.76,0,0,0,536.2,492c7.36.59,14.68,0,22-4.1,3.62-2,7.55-3.16,11.21-1.57,2.21,1,4.72,1.56,6.06,3.68.59.94.77,1.66-.8,2.53a23.2,23.2,0,0,1-7.07,2.62c-9.6,1.74-19.1,2.81-28.46,1.94-6.29-.58-12.68-.8-18.17-3.5a3.27,3.27,0,0,0-1.33-.28c-1.7,0-2.39.72-2.22,2.31.38,3.43,1.3,6.66,1.95,10,.73,3.7,1.84,7.12,4.31,9.75,5.61,6,8.45,7.2,16.72,4,4.18-1.64,8.41-3.15,12.54-4.94a69.19,69.19,0,0,1,15.4-4.56,18.67,18.67,0,0,1,11.9,1.57c.58.28,1.25.56,1.26,1.27,0,.87-.95,1-1.53,1.34a22,22,0,0,1-8.12,2.81A186.69,186.69,0,0,0,553.16,520c-6.87,1.42-13.73,2.53-20.59,3.68-3.47.58-4,1.47-3.1,4.51,1.33,4.43,3.83,8.14,6.3,11.88l2.51,3.21,2.18,2.6,1,1.07c1.2,1.07,2.36,2.17,3.61,3.19A130.07,130.07,0,0,0,562,561.79l0,0a2.68,2.68,0,0,1,1.89.94c1.85.69,2.69,2.52,4.29,3.44a48.08,48.08,0,0,0,27.35,6.56c4.21-.25,7.94-2.28,11.75-4.41,4.65-2.61,8.22-6.49,12.33-9.71a50.23,50.23,0,0,0,8.23-8.58,20.21,20.21,0,0,0,3.2-6.74c.7-2.28-.15-4.85-1.28-7-2.44-4.67-6.19-8.2-10.1-11.59a8.44,8.44,0,0,1-2.35-3.07c-1.34-3.13-1.9-6.58-2.8-9.9a22,22,0,0,1-.26-4.24c1.38,1.67,2.55,3.09,3.73,4.5,8.46,10.09,18.3,19.06,24.08,31.31,1.63,3.47,3.8,6.7,5.5,10.17,2,4.16,3.75,8.49,6.08,12.47,1.1,1.89,1.72,1.77,3.17-.37s3-4.63,5.3-6.39a1.4,1.4,0,0,0,.41-2.13c-2.41-3.15-4.26-6.72-7.15-9.52-2.53-2.46-5.37-4.65-7.42-7.57Zm18.4-79.78a6,6,0,0,1-.72,2.17c-4.17,7.23-8.63,14.24-16.16,19a19.54,19.54,0,0,0-2.5,1.83c-3.21,2.83-6.38,3.07-9.59,1.61-2.08-.95-2.12-1.78.05-3.39a47.06,47.06,0,0,1,4.79-3.15c5.39-3.08,9.22-7.77,13.37-12.14a53.28,53.28,0,0,0,8.76-13.18,6.23,6.23,0,0,1,2-2.76C665.61,452.87,666.1,456,665.64,459.38ZM585,558.25a31.26,31.26,0,0,1-11.17,0c-1.11-.18-1-.63-.12-1.23,4.71-3.3,8.83-7.4,13.74-10.43a28.37,28.37,0,0,1,6-2.44,2.15,2.15,0,0,1,2.44.82,9.8,9.8,0,0,1,1.74,3.69c.46,1.55-1.12,2.41-2.25,3.46C592,554.14,589.19,557.42,585,558.25Zm6.78-46.77c-2.23-.36-3-2.76-1.55-4.8,2.36-3.45,5.83-4.92,9.52-5.45,3.06-.44,4.46,2.36,2.79,5.13a12.13,12.13,0,0,1-2.79,3A8.8,8.8,0,0,1,591.79,511.48Zm7.56-63a24.87,24.87,0,0,1-3.14,7.17,4,4,0,0,1-3.66,1.94c-1.36-.09-1.74-1.28-2-2.42-.73-3.23.53-6.07,3.32-8.53,1.86-1.63,3.93-1.82,5-.53A2.51,2.51,0,0,1,599.35,448.44ZM571,529.66c.7-.55,1.49-1.93,2.36-1.15a2.71,2.71,0,0,1,.64,3.86,8.26,8.26,0,0,1-1.58,1.81c-3.87,3.16-8.08,5.25-13.4,5.43C563.52,536.34,567.05,532.75,571,529.66Zm49.34-44.06c-.77-.28-.81-.91-.76-1.57a14.51,14.51,0,0,1,4.11-9.5c.51-.53,1.12-1.1,1.85-1s.61,1,.62,1.61c.09,3.57-.84,6.94-3.47,9.39C621.64,485.47,621.11,485.88,620.33,485.6Zm-30.26,6.13c-1.38,1.33-4.62,1.13-5.73-.34a2.12,2.12,0,0,1,.28-3.07c1.3-1.27,4.55-.91,5.82.55C591.41,489.83,591,490.86,590.07,491.73Zm16.59,41.4c-.59.47-1.32,1.28-2,.79s-.59-1.51,0-2.35a17.41,17.41,0,0,1,3.56-3.56A4.14,4.14,0,0,1,606.66,533.13Z"/><path class="cls-4" d="M-28.45,283l2.67,7.4a5.06,5.06,0,0,0,5.84,3.22c8-1.78,25.61-4.25,39.1,4.38,18,11.52,32.49,36.91,97.94,15.77s89.6-72.09,82.05-106.89c0,0-1.6-13-12.59-9.46,0,0-18,7.34-26.45,17s-38.52,31-64.5,39.86-56.47,12.56-74.07,24.14l-33.92-7.18a6.93,6.93,0,0,0-6.37,1.91Z"/><path class="cls-5" d="M188.9,203.06c-26.19,47.71-97,68.4-115.88,70.7S21,285,21,285L-.91,282.84l-27.23,1,2.36,6.54a5.06,5.06,0,0,0,5.84,3.22c8-1.78,25.61-4.25,39.1,4.38,18,11.52,32.49,36.91,97.94,15.77s89.6-72.09,82.05-106.89c0,0,0-.24-.11-.65C193.88,208.34,188.9,203.06,188.9,203.06Z"/><path class="cls-4" d="M619.55,283l2.67,7.4a5.06,5.06,0,0,0,5.84,3.22c8-1.78,25.61-4.25,39.1,4.38,18,11.52,32.49,36.91,97.94,15.77s89.6-72.09,82-106.89c0,0-1.6-13-12.59-9.46,0,0-18,7.34-26.45,17s-38.52,31-64.5,39.86-56.47,12.56-74.07,24.14l-33.92-7.18a6.93,6.93,0,0,0-6.37,1.91Z"/><path class="cls-5" d="M836.9,203.06c-26.19,47.71-97,68.4-115.88,70.7S669,285,669,285l-21.86-2.11-27.23,1,2.36,6.54a5.06,5.06,0,0,0,5.84,3.22c8-1.78,25.61-4.25,39.1,4.38,18,11.52,32.49,36.91,97.94,15.77s89.6-72.09,82-106.89c0,0,0-.24-.11-.65C841.88,208.34,836.9,203.06,836.9,203.06Z"/><path class="cls-4" d="M313,437.05c3-3.14,6.07-4.8,9.24-7.72a233.92,233.92,0,0,0,53.62-73.21,56.19,56.19,0,0,0,4.71-20c.47-6.6.15-12.84-5.5-18.09,4.57-1.36,8.2.33,11.12,2.27,16.42,10.88,34.39,19.26,50.23,31,9.17,6.82,11.43,15.93,7.26,26.52-3.46,8.8-9.52,15.77-15.83,22.57,6.13,2.61,12.41,1.94,18.65.67,20.05-4.07,34.18-19.75,32.57-37.07-1.08-11.57-3.56-22.92-11.53-32.27C463,326.43,457,323,452,318.27a151.87,151.87,0,0,1-15,20.72c-3.5,4.08-6.27,5-11.37,2.08-11.54-6.58-23.08-13.14-34.24-20.33-5.29-3.42-10.63-6.12-17.19-5.77-3.93.22-4.86-1.39-1.88-4.38-.2-4.3.88-8.31,2.29-12.41,5.48-15.93,5.48-31-8.88-42.78-19.84-16.23-57.87-22.66-83.06-1.2-5.16,4.4-11.47,8.66-13.47,16.05-.61,2.24-2.53,4.93-.76,6.72,2.45,2.48,3.87-1.31,5.79-2.15a79.69,79.69,0,0,0,8-4.6c12.74-7.41,26-12.47,41.21-10.89,17.59,1.82,31.93,14.51,33.28,30.68,1.21,14.41-5.18,25.8-15.68,35-12.85,11.25-28.62,16.61-44.79,20.73-19.56,5-39.53,7.92-59.57,9.95-17.22,1.74-32.83,9.22-49.55,12.61-3.64.74-3.52,4.09-3.55,6.93-.08,5.68.38,11.4-.09,17-.37,4.47,1.08,7.63,4,10.82,18.05,19.57,40.08,30.54,66.83,32.18a229.49,229.49,0,0,0,46.13-1.63C303.87,433.16,313.29,433.48,313,437.05Z"/><path class="cls-6" d="M452,318.27a151.87,151.87,0,0,1-15,20.72c-3.5,4.08-6.28,5-11.37,2.08-11.54-6.58-23.08-13.14-34.24-20.33-5.29-3.42-10.63-6.12-17.19-5.77-3.93.22-4.86-1.39-1.88-4.38,27.85-31.07,50.19-65.24,60-106.52,2.47-10.33,4.15-20.94,8.81-30.64,4.58-9.53,13.13-11.68,21.51-5.23,9.45,7.26,13,17.85,15,29,5,27.17-.39,53.2-8.88,78.94C464.15,290.51,457.64,304.2,452,318.27Z"/><path class="cls-7" d="M449.15,318.17a146.2,146.2,0,0,1-14.42,20c-3.38,3.93-6.05,4.8-11,2-11.12-6.34-22.24-12.66-33-19.6-5.1-3.29-10.24-5.9-16.57-5.55-3.79.2-4.68-1.35-1.81-4.22,26.84-29.95,48.37-62.89,57.86-102.67,2.38-10,4-20.18,8.49-29.53,4.42-9.18,12.66-11.26,20.74-5,9.11,7,12.53,17.2,14.49,27.91,4.82,26.18-.37,51.27-8.55,76.07C460.83,291.42,454.56,304.61,449.15,318.17Z"/><path class="cls-5" d="M422.6,409.3c-29.78,26.45-63.61,43.81-104,46.3a28.27,28.27,0,0,1-5.12.06c-3.5-.44-7-1.47-8.54-4.92-1.63-3.7.87-6.51,3.13-9.16,3.22-3.78,7.65-6.14,11.23-9.44,23.26-21.46,42.72-45.85,56.21-74.66,3-6.46,4.35-13.47,4.86-20.65.49-6.81.16-13.26-5.67-18.67,4.71-1.41,8.46.34,11.48,2.33,16.95,11.24,35.5,19.89,51.85,32.05,9.47,7,11.81,16.44,7.5,27.37-3.58,9.09-9.83,16.29-16.35,23.3Z"/><path class="cls-5" d="M-26.21,152.17c-9.92,6.82-20.58,12.93-32.68,16.11-8.45,2.22-16.91,1.8-25.35-.17-4.11-1-8.2-2-12.34-2.84a5.75,5.75,0,0,1-4.69-4.44c-.5-1.67-.59-3.46-1-5.18-.57-2.68.92-4,3.21-4.05,10.57-.31,19.49-5.75,28.94-9.39,15.06-5.78,27.74-15.22,38.63-27,9.63-10.43,16.6-22.29,18.18-36.74.48-4.38.42-8.79.56-13.19.2-6.68.34-13.43,4-19.4.87-1.41,1.45-3.44,3.94-2C-1.39,45.69.49,48.54-.8,50.6-5.38,58-4.49,65.77-2.64,73.55A47.21,47.21,0,0,0,.83,82.09C8.14,98,6,113.09-2.54,128-8.34,138-16.82,145.23-26.21,152.17Z"/><path class="cls-4" d="M.27,104.72a109.27,109.27,0,0,1-38,42.88,145,145,0,0,1-42.81,21.27,50,50,0,0,0,21.63-.59c12.1-3.18,22.76-9.29,32.68-16.11C-16.82,145.23-8.34,138-2.54,128S6,107.9,5.08,97.54Q2.83,101.2.27,104.72Z"/><path class="cls-5" d="M621.79,152.17c-9.92,6.82-20.58,12.93-32.68,16.11-8.45,2.22-16.91,1.8-25.35-.17-4.11-1-8.2-2-12.34-2.84a5.75,5.75,0,0,1-4.69-4.44c-.5-1.67-.59-3.46-1-5.18-.57-2.68.92-4,3.21-4.05,10.57-.31,19.49-5.75,28.94-9.39,15.06-5.78,27.74-15.22,38.63-27,9.63-10.43,16.6-22.29,18.18-36.74.48-4.38.42-8.79.56-13.19.2-6.68.34-13.43,4-19.4.87-1.41,1.45-3.44,3.94-2,3.34,1.87,5.22,4.72,3.93,6.78-4.58,7.37-3.69,15.17-1.84,22.95a47.21,47.21,0,0,0,3.47,8.54c7.31,15.92,5.19,31-3.37,45.86C639.66,138,631.18,145.23,621.79,152.17Z"/><path class="cls-4" d="M648.27,104.72a109.27,109.27,0,0,1-38,42.88,145,145,0,0,1-42.81,21.27,50,50,0,0,0,21.63-.59c12.1-3.18,22.76-9.29,32.68-16.11,9.39-6.94,17.87-14.15,23.67-24.22s8.58-20,7.62-30.41Q650.83,101.2,648.27,104.72Z"/><path class="cls-4" d="M444.35,35.79C457,48.38,471,60.13,487.78,68c11.74,5.48,24.21,7.13,37.05,6.48,6.26-.31,12.51-.79,18.77-.87,4,0,6.42-2,8-5.24,1.16-2.31,1.77-4.9,2.76-7.3,1.55-3.77-.28-6.06-3.6-6.77C535.43,51,523.86,40.71,511,32.89c-20.44-12.43-36.45-29.57-49.21-49.68C450.52-34.57,443.49-53.74,445-75.25c.46-6.51,1.71-12.93,2.68-19.39,1.48-9.8,3.07-19.7-.75-29.39-.9-2.29-1.21-5.4-5.22-4-5.36,1.84-8.86,5.5-7.54,8.85,4.75,12,1.38,23.11-3.39,34-1.8,4.13-4.72,7.8-7.33,11.54-14.88,21.3-15.79,43.88-7.24,67.83C422,10.41,432.48,23.17,444.35,35.79Z"/><path class="cls-5" d="M418.28-40.49a162.23,162.23,0,0,0,44.07,72.67,215.68,215.68,0,0,0,56.85,42.4A74.09,74.09,0,0,1,487.78,68C471,60.13,457,48.38,444.35,35.79,432.48,23.17,422,10.41,416.22-5.84c-5.74-16.07-7.21-31.53-3.06-46.4C414.71-48.29,416.4-44.37,418.28-40.49Z"/><path class="cls-4" d="M443.48-134.53l-7.76-1.25a5.05,5.05,0,0,0-5.65,3.55c-2.32,7.85-8.7,24.46-22.79,32.07-18.8,10.17-48,10.53-61.28,78s19.62,113.31,53.71,123.58c0,0,12.15,4.91,14.39-6.43,0,0,2.3-19.29-2.1-31.4s-8.41-48.7-3.59-75.73,16.4-55.48,14.8-76.49l22.73-26.19a6.93,6.93,0,0,0,1.41-6.49Z"/><path class="cls-5" d="M408,94.32c-29-46-12.82-118-5.65-135.63s15.45-51,15.45-51l12.45-18.1,12.32-24.3-6.86-1.11a5.05,5.05,0,0,0-5.65,3.55c-2.32,7.85-8.7,24.46-22.79,32.07-18.8,10.17-48,10.53-61.28,78s19.62,113.31,53.71,123.58l.63.22C401,96.11,408,94.32,408,94.32Z"/><path class="cls-4" d="M444.35,683.79C457,696.38,471,708.13,487.78,716c11.74,5.48,24.21,7.13,37.05,6.48,6.26-.31,12.51-.79,18.77-.87,4-.05,6.42-2,8-5.24,1.16-2.31,1.77-4.9,2.76-7.3,1.55-3.77-.28-6.06-3.6-6.77C535.43,699,523.86,688.71,511,680.89c-20.44-12.43-36.45-29.57-49.21-49.68-11.29-17.78-18.32-37-16.8-58.46.46-6.51,1.71-12.93,2.68-19.39,1.48-9.8,3.07-19.7-.75-29.39-.9-2.29-1.21-5.4-5.22-4-5.36,1.84-8.86,5.5-7.54,8.85,4.75,12,1.38,23.11-3.39,34-1.8,4.13-4.72,7.8-7.33,11.54-14.88,21.3-15.79,43.88-7.24,67.83C422,658.41,432.48,671.17,444.35,683.79Z"/><path class="cls-5" d="M418.28,607.51a162.23,162.23,0,0,0,44.07,72.67,215.68,215.68,0,0,0,56.85,42.4A74.09,74.09,0,0,1,487.78,716C471,708.13,457,696.38,444.35,683.79c-11.87-12.62-22.33-25.38-28.13-41.63-5.74-16.07-7.21-31.53-3.06-46.4C414.71,599.71,416.4,603.63,418.28,607.51Z"/><path class="cls-4" d="M443.48,513.47l-7.76-1.25a5.05,5.05,0,0,0-5.65,3.55c-2.32,7.85-8.7,24.46-22.79,32.07-18.8,10.17-48,10.53-61.28,78s19.62,113.31,53.71,123.58c0,0,12.15,4.91,14.39-6.43,0,0,2.3-19.29-2.1-31.4s-8.41-48.7-3.59-75.73,16.4-55.48,14.8-76.49l22.73-26.19a6.93,6.93,0,0,0,1.41-6.49Z"/><path class="cls-5" d="M408,742.32c-29-46-12.82-118-5.65-135.63s15.45-51,15.45-51l12.45-18.1,12.32-24.3-6.86-1.11a5.05,5.05,0,0,0-5.65,3.55c-2.32,7.85-8.7,24.46-22.79,32.07-18.8,10.17-48,10.53-61.28,78s19.62,113.31,53.71,123.58l.63.22C401,744.11,408,742.32,408,742.32Z"/></pattern></defs><g id="Layer_2" data-name="Layer 2"><g id="Layer_1-2" data-name="Layer 1"><polygon id="_16" data-name="16" class="cls-8" points="0 0 3045.43 0 3045.43 3254.56 0 3254.56 0 0"/></g></g></svg>